<?xml version="1.0" encoding="utf-8"?>
<!-- Generator: Adobe Illustrator 18.1.1, SVG Export Plug-In . SVG Version: 6.00 Build 0)  -->
<svg version="1.1" xmlns="http://www.w3.org/2000/svg" xmlns:xlink="http://www.w3.org/1999/xlink" x="0px" y="0px"
	 viewBox="0 0 566.9 230.3" enable-background="new 0 0 566.9 230.3" xml:space="preserve">
<g id="paillasse">
</g>
<g id="Calque_1">
	<path fill="#23507A" d="M493.4,196.5H72.6c-3.1,0-5.7-2.6-5.7-5.7V45.1c0-3.1,2.6-5.7,5.7-5.7h420.9c3.1,0,5.7,2.6,5.7,5.7v145.8
		C499.1,194,496.6,196.5,493.4,196.5z"/>
	<rect x="66.9" y="36.4" fill="#3471A9" width="432.2" height="147.1"/>
</g>
<g id="Calque_3">
	<g>
		<g>
			<path fill="#FFFFFF" d="M146.9,151c-1.1,0-2.2-0.3-3-0.7l-31.6-17.9c-1.7-1-3.1-3.3-3.1-5.3L108.9,91c0-1.9,1.4-4.3,3-5.3
				l31.3-18.3c0.8-0.5,1.9-0.7,3.1-0.7c1.1,0,2.2,0.3,3,0.7L181,85.3c1.7,1,3.1,3.3,3.1,5.3l0.2,36.1c0,1.9-1.4,4.3-3,5.3L150,150.3
				C149.2,150.8,148.1,151,146.9,151z"/>
			<path fill="#FFFFFF" d="M146.4,66.8c1.1,0,2.2,0.2,3,0.7L181,85.3c1.7,1,3.1,3.3,3.1,5.2l0.2,36.1c0,1.9-1.3,4.3-3,5.3L150,150.3
				c-0.8,0.5-2,0.7-3.1,0.7c-1.1,0-2.2-0.2-3-0.7l-31.6-17.9c-1.7-1-3.1-3.3-3.1-5.2L109,91c0-1.9,1.3-4.3,3-5.3l31.3-18.3
				C144.2,67,145.3,66.8,146.4,66.8 M146.4,66.7c-1.2,0-2.3,0.3-3.1,0.8L112,85.7c-1.7,1-3.1,3.4-3.1,5.3l0.2,36.1
				c0,2,1.4,4.3,3.1,5.3l31.6,17.9c0.8,0.5,1.9,0.7,3,0.7c1.2,0,2.3-0.3,3.1-0.8l31.3-18.3c1.7-1,3.1-3.4,3.1-5.3l-0.2-36.1
				c0-2-1.4-4.3-3.1-5.3l-31.6-17.9C148.7,66.9,147.6,66.7,146.4,66.7L146.4,66.7z"/>
		</g>
		<g>
			<path fill="none" stroke="#3572AA" stroke-width="0.655" stroke-linejoin="round" stroke-miterlimit="10" d="M143.5,150.4
				c1.7,1,4.4,1,6.1,0l31.5-18.1c1.7-1,3.1-3.3,3.1-5.3l0-1.8l0,1.8c0,1.9-1.4,4.3-3.1,5.3l-31.5,18.1
				C148,151.4,145.2,151.4,143.5,150.4l-31.5-18.2c-1.7-1-3-3.4-3-5.3l0-2.3l0.1-32.2l0-1.8c0-1.9,1.4-4.3,3.1-5.3l31.5-18.1
				c1.7-1,4.4-1,6.1,0l31.5,18.2c1.7,1,3,3.4,3,5.3l0,2.3l-0.1,32.2l0.1-32.2l0-2.3c0-1.9-1.4-4.3-3-5.3l-31.5-18.2
				c-1.7-1-4.4-1-6.1,0l-31.5,18.1c-1.7,1-3.1,3.3-3.1,5.3l0,1.8l-0.1,32.2"/>
		</g>
	</g>
	<g>
		<g>
			<path fill="#3471A9" d="M137.9,128.6C137.9,128.6,137.9,128.7,137.9,128.6C137.9,128.7,137.9,128.7,137.9,128.6z"/>
		</g>
		<g>
			<path fill="#3471A9" d="M126.4,119.2c-0.2-0.1-0.5,0-0.7,0c-1-0.1-2.1,0.2-3.2,0.4c-0.7,0.1-1.4,0.4-2.2,0.6
				c-0.1,0-0.2,0.1-0.2,0.1l0,0.3c0.8-0.4,1.7-0.5,2.6-0.7C123.8,119.6,125,119.1,126.4,119.2z"/>
		</g>
		<g>
			<path fill="#3471A9" d="M120,122l0.2,0L120,122l8.2,5.6c0.6-0.4,1.3-0.7,1.9-1.1c-0.2,0-0.4,0.2-0.6,0.1c0.1,0,0-0.2,0.1-0.2
				c0.8-0.2,1.5-0.7,2.3-1c-0.3,0-0.5,0.2-0.8,0c0.1-0.1,0.2-0.2,0.4-0.2c0-0.1,0-0.1,0-0.2c0-0.1,0.1-0.1,0.1-0.1
				c-0.1,0-0.1-0.1-0.1-0.1c0.1-0.1,0.3-0.1,0.4-0.2c-0.1,0-0.2,0-0.2-0.1c0.2-0.3,0.6-0.4,1-0.4c-0.1-0.1-0.3,0-0.3-0.1
				c0-0.1,0.1-0.1,0.1-0.1c-0.1,0-0.1,0-0.1,0c-0.1-0.1-0.1-0.2-0.1-0.3c0.4-0.5,0.4-1.2,0.7-1.8c-0.1,0-0.1,0-0.1-0.1
				c-0.7,0.8-1.9,1.1-3.1,1.4c-0.1,0-0.3,0-0.4,0c-0.4,0.1-0.9,0.1-1.3-0.1c-0.3-0.1-0.4-0.4-0.7-0.6c-0.6-0.4-1.2-0.7-1.9-0.9
				c-1.8-0.6-3.8-0.9-5.7-0.8L120,122L120,122L120,122L120,122L120,122z"/>
		</g>
		<g>
			<path fill="#3471A9" d="M137.8,128.7C137.8,128.7,137.8,128.7,137.8,128.7c-0.1,0-0.1-0.1-0.1-0.1c-1-0.1-1.7,0.5-2.4,1.1
				c-0.1,0.1-0.3-0.1-0.4-0.1c-0.7,0.2-1.3,0.7-2,1.2l1.9,1.3c0.9-1,1.9-2,3-2.9c0.1-0.1,0.1-0.2,0.1-0.3c-0.4,0.1-0.6,0.4-1,0.6
				c-0.1,0-0.1-0.1-0.1-0.1C137.3,129.1,137.6,128.9,137.8,128.7z"/>
		</g>
		<g>
			<path fill="#3471A9" d="M164.4,89.6l-17.7-11.8l0-0.1l0,0.1l-17.7,11.7l-8.9,5.9l0,24.1c0.5-0.5,1.2-0.8,1.9-0.9
				c1.3-0.2,2.6,0,4,0.1c1,0.1,1.9,0.3,2.8,0.5c0.4,0,0.4,0.6,0.7,0.7c0.4,0.1,0.9,0,1.3,0.3c0-0.1-0.1-0.3,0-0.4
				c0.3-0.3,0.7,0.1,1-0.1c0.6-0.4-0.5-1-0.8-1.6c0-0.1,0.1-0.1,0.1-0.1c0.6,0.5,1,1.1,1.8,1.5c0.4,0.1,1.3,0.4,1.1-0.1
				c-0.4-0.8-1.1-1.5-1.7-2.2c0-0.1,0-0.2,0-0.3c-0.1,0-0.1-0.1-0.2-0.1c0-0.1,0-0.2,0-0.3c-0.3-0.1-0.2-0.4-0.4-0.7
				c-0.2-0.4-0.1-0.9-0.2-1.3c-0.1-0.4-0.2-0.8-0.3-1.3c-0.2-1.3-0.5-2.4-0.7-3.6c-0.1-1.4,0.8-2.5,1.5-3.8c0.5-0.9,1.1-1.8,2.1-2.4
				c0.2-0.9,0.8-1.6,1.4-2.4c0.6-0.7,1.8-1.4,2.4-1.5c13.5-6.1,19.4,0.7,19.7,1.2c0.1,0.2,0.4,0.7,0.2,1c-0.1,0.4-0.2,1-0.6,1.1
				c-0.4,0.2-1,0.2-1.6,0.1c-0.3,0-0.6-0.1-0.9-0.1c1.1,0.4,2.2,1,2.9,2c0.1,0.1,0.4,0.2,0.7,0.2c0.1,0,0.1,0.1,0.1,0.2
				c-0.1,0.1-0.3,0.2-0.2,0.4c0.1,0,0.1,0,0.2,0c0.4-0.1,0.3-0.9,0.8-0.7c0.4,0.2,0.5,0.7,0.3,1.1c-0.3,0.3-0.6,0.5-0.9,0.7
				c-0.1,0.1-0.1,0.4,0,0.5c0.2,0.3,0.3,0.6,0.4,0.9c0.2,0.5,0.3,1.1,0.5,1.6c0.3,1.1,0.6,2.2,0.5,3.4c0,0.6-0.3,1.1-0.1,1.7
				c0.1,0.6,0.5,1,0.8,1.6c0.3,0.4,0.6,0.7,0.8,1.2c0.4,0.7,1.3,1.5,0.9,2.4c-0.2,0.5-1,0.4-1.6,0.7c-0.4,0.4-0.1,1,0.1,1.3
				c0.4,0.7-0.4,1.1-1,1.3c0.1,0.2,0.4,0.1,0.5,0.3c0.1,0.4,0.4,0.6,0.2,1c-0.3,0.4-1.2,0.7-0.7,1.3c0.3,0.5,0.1,1.1-0.1,1.6
				c-0.2,0.7-0.8,1-1.3,1.1c-0.4,0.1-1,0.1-1.4,0.1c-0.1-0.1-0.3-0.1-0.4-0.1c-1.3-0.1-2.5-0.5-3.8-0.5c-0.4,0.1-0.7,0.1-1,0.3
				c-1.2,1.1-6.4,7.9-7.5,9.6l2.2,1.4l26.6-17.7l0,0h0l0,0l0.1-26.7L164.4,89.6z"/>
		</g>
		<g>
			<path fill="#3471A9" d="M159.1,112.9c-0.1-0.2-0.7-0.2-1-0.4c-0.4-0.1-0.8,0-1.3,0.1c-0.4,0-0.7,0.2-1.1,0.3
				c-0.5,0.1-1,0.4-1.4,0.7c0.5-0.2,1-0.3,1.6-0.4c0.4,0,0.8-0.1,1.3,0c0.3,0.1,0.7,0.1,0.7,0.2c-0.1,0.6-1,0.7-1.5,1.3
				c-0.1,0-0.1,0-0.2,0c-0.2,0.1-0.1,0.5-0.4,0.5c-0.2-0.1-0.4,0-0.7,0.1c0.3,0.3,0.7,0.5,1.1,0.4c0.1,0,0.2,0.1,0.2,0.3
				c0,0,0.1,0,0.1-0.1c0.1,0,0.1,0,0.1,0.1c0,0.1,0,0.2,0,0.3c-0.2,0.3-0.6,0.1-0.9,0.2c0.6,0.1,1.2,0.1,1.7,0
				c0.4-0.1,0-0.9,0.3-1.3c-0.1,0,0-0.2-0.1-0.2c0.1-0.1,0.3-0.4,0.4-0.4c0.1,0,0.4-0.1,0.4-0.2c0-0.1-0.3-0.2-0.2-0.4
				C158.8,113.8,159.2,113.4,159.1,112.9z"/>
		</g>
		<g>
			<path fill="#3471A9" d="M130.9,129c-0.1,0.1-0.2,0.1-0.3,0.2l0.7,0.4c0.2-0.1,0.4-0.3,0.7-0.4c0.4-0.1,0.7-0.5,1.1-0.7
				c0.6-0.4,1-1,1.3-1.7c0-0.1-0.1-0.1-0.1-0.1C133.2,127.6,132.1,128.4,130.9,129z"/>
		</g>
	</g>
	<g>
		<g>
			<path fill="#FFFFFF" d="M222.7,93.5c0-1.1-0.4-2-1.3-2.7s-2.3-1.4-4.4-2c-2.3-0.6-4-1.4-5.2-2.3s-1.8-2.2-1.8-3.8
				c0-1.6,0.7-3,2-4s3-1.6,5.1-1.6c2.2,0,3.9,0.6,5.2,1.8s2,2.7,1.9,4.5l0,0.1h-1.6c0-1.4-0.5-2.6-1.5-3.5s-2.3-1.4-3.9-1.4
				c-1.7,0-3,0.4-3.9,1.2s-1.4,1.8-1.4,2.9c0,1.1,0.4,2,1.3,2.7s2.4,1.4,4.5,2c2.2,0.7,4,1.5,5.1,2.4s1.8,2.2,1.8,3.8
				c0,1.7-0.7,3-2.1,4s-3.1,1.5-5.2,1.5s-3.9-0.5-5.5-1.6s-2.3-2.6-2.3-4.7l0-0.1h1.6c0,1.7,0.6,2.9,1.9,3.7s2.7,1.2,4.2,1.2
				c1.6,0,3-0.4,4-1.1S222.7,94.7,222.7,93.5z"/>
			<path fill="#FFFFFF" d="M234.6,99c-2.1,0-3.7-0.7-5-2.2s-1.9-3.3-1.9-5.6v-0.8c0-2.3,0.6-4.2,1.9-5.7s2.9-2.2,4.8-2.2
				c1.9,0,3.4,0.6,4.5,1.9s1.6,2.9,1.6,5v1.4h-11v0.5c0,1.8,0.5,3.3,1.4,4.5s2.2,1.8,3.8,1.8c1,0,1.9-0.2,2.7-0.5s1.5-0.7,2-1.3
				L240,97c-0.6,0.6-1.3,1.1-2.2,1.5S235.8,99,234.6,99z M234.4,84c-1.3,0-2.5,0.5-3.3,1.5s-1.4,2.2-1.5,3.7l0,0.1h9.1v-0.4
				c0-1.4-0.4-2.6-1.1-3.5S235.8,84,234.4,84z"/>
			<path fill="#FFFFFF" d="M257.4,97.5c1.1,0,2.1-0.3,3-1s1.3-1.6,1.3-2.8h1.6l0,0.1c0,1.5-0.5,2.7-1.7,3.7s-2.6,1.5-4.1,1.5
				c-2.1,0-3.8-0.7-4.9-2.2s-1.8-3.4-1.8-5.7v-0.6c0-2.3,0.6-4.2,1.8-5.7s2.8-2.2,4.9-2.2c1.7,0,3.1,0.5,4.2,1.5s1.7,2.4,1.6,4
				l0,0.1h-1.6c0-1.3-0.4-2.3-1.2-3s-1.8-1.1-3-1.1c-1.7,0-2.9,0.6-3.7,1.8s-1.2,2.7-1.2,4.6v0.6c0,1.9,0.4,3.4,1.2,4.6
				S255.7,97.5,257.4,97.5z"/>
			<path fill="#FFFFFF" d="M266.2,90.5c0-2.3,0.6-4.2,1.9-5.7s3-2.2,5.1-2.2c2.1,0,3.8,0.7,5.1,2.2s1.9,3.4,1.9,5.7V91
				c0,2.3-0.6,4.3-1.9,5.7s-3,2.2-5.1,2.2c-2.1,0-3.8-0.7-5.1-2.2s-1.9-3.4-1.9-5.7V90.5z M267.9,91c0,1.8,0.5,3.4,1.4,4.6
				s2.2,1.9,3.9,1.9c1.6,0,2.9-0.6,3.8-1.9s1.4-2.8,1.4-4.6v-0.5c0-1.8-0.5-3.3-1.4-4.6s-2.2-1.9-3.9-1.9s-2.9,0.6-3.9,1.9
				s-1.4,2.8-1.4,4.6V91z"/>
			<path fill="#FFFFFF" d="M285.6,82.8l0.2,2.8c0.5-1,1.2-1.7,2.1-2.2s1.9-0.8,3.1-0.8c1.7,0,3,0.5,3.9,1.6s1.3,2.7,1.3,4.9v9.7
				h-1.8v-9.6c0-1.8-0.3-3.1-1-3.9s-1.6-1.1-2.9-1.1s-2.3,0.3-3,0.9s-1.3,1.4-1.7,2.5v11.2H284V82.8H285.6z"/>
			<path fill="#FFFFFF" d="M302.4,82.8l0.2,2.8c0.5-1,1.2-1.7,2.1-2.2s1.9-0.8,3.1-0.8c1.7,0,3,0.5,3.9,1.6s1.3,2.7,1.3,4.9v9.7
				h-1.8v-9.6c0-1.8-0.3-3.1-1-3.9s-1.6-1.1-2.9-1.1s-2.3,0.3-3,0.9s-1.3,1.4-1.7,2.5v11.2h-1.8V82.8H302.4z"/>
			<path fill="#FFFFFF" d="M323.7,99c-2.1,0-3.7-0.7-5-2.2s-1.9-3.3-1.9-5.6v-0.8c0-2.3,0.6-4.2,1.9-5.7s2.9-2.2,4.8-2.2
				c1.9,0,3.4,0.6,4.5,1.9s1.6,2.9,1.6,5v1.4h-11v0.5c0,1.8,0.5,3.3,1.4,4.5s2.2,1.8,3.8,1.8c1,0,1.9-0.2,2.7-0.5s1.5-0.7,2-1.3
				l0.7,1.2c-0.6,0.6-1.3,1.1-2.2,1.5S325,99,323.7,99z M323.6,84c-1.3,0-2.5,0.5-3.3,1.5s-1.4,2.2-1.5,3.7l0,0.1h9.1v-0.4
				c0-1.4-0.4-2.6-1.1-3.5S324.9,84,323.6,84z"/>
			<path fill="#FFFFFF" d="M339.1,97.5c1.1,0,2.1-0.3,3-1s1.3-1.6,1.3-2.8h1.6l0,0.1c0,1.5-0.5,2.7-1.7,3.7s-2.6,1.5-4.1,1.5
				c-2.1,0-3.8-0.7-4.9-2.2s-1.8-3.4-1.8-5.7v-0.6c0-2.3,0.6-4.2,1.8-5.7s2.8-2.2,4.9-2.2c1.7,0,3.1,0.5,4.2,1.5s1.7,2.4,1.6,4
				l0,0.1h-1.6c0-1.3-0.4-2.3-1.2-3s-1.8-1.1-3-1.1c-1.7,0-2.9,0.6-3.7,1.8s-1.2,2.7-1.2,4.6v0.6c0,1.9,0.4,3.4,1.2,4.6
				S337.4,97.5,339.1,97.5z"/>
			<path fill="#FFFFFF" d="M351.6,78.8v4.1h3.5v1.4h-3.5v10.3c0,1,0.2,1.8,0.6,2.2s0.9,0.7,1.5,0.7c0.2,0,0.4,0,0.6,0
				s0.4-0.1,0.7-0.1l0.3,1.3c-0.2,0.1-0.5,0.2-0.9,0.3s-0.7,0.1-1,0.1c-1.1,0-2-0.4-2.6-1.1s-0.9-1.8-0.9-3.3V84.3h-2.7v-1.4h2.7
				v-4.1H351.6z"/>
			<path fill="#FFFFFF" d="M364.7,99c-2.1,0-3.7-0.7-5-2.2s-1.9-3.3-1.9-5.6v-0.8c0-2.3,0.6-4.2,1.9-5.7s2.9-2.2,4.8-2.2
				c1.9,0,3.4,0.6,4.5,1.9s1.6,2.9,1.6,5v1.4h-11v0.5c0,1.8,0.5,3.3,1.4,4.5s2.2,1.8,3.8,1.8c1,0,1.9-0.2,2.7-0.5s1.5-0.7,2-1.3
				l0.7,1.2c-0.6,0.6-1.3,1.1-2.2,1.5S366,99,364.7,99z M364.5,84c-1.3,0-2.5,0.5-3.3,1.5s-1.4,2.2-1.5,3.7l0,0.1h9.1v-0.4
				c0-1.4-0.4-2.6-1.1-3.5S365.9,84,364.5,84z"/>
			<path fill="#FFFFFF" d="M381.5,84.4l-1.2-0.1c-1.1,0-2,0.3-2.7,0.9s-1.2,1.5-1.5,2.6v10.9h-1.8V82.8h1.5l0.2,2.6v0.2
				c0.5-1,1.1-1.7,1.8-2.3s1.7-0.8,2.8-0.8c0.2,0,0.4,0,0.6,0.1s0.4,0.1,0.5,0.1L381.5,84.4z"/>
			<path fill="#FFFFFF" d="M402.1,98.7c-0.1-0.6-0.2-1-0.2-1.4s-0.1-0.8-0.1-1.2c-0.5,0.9-1.3,1.6-2.3,2.1s-2.1,0.8-3.4,0.8
				c-1.6,0-2.8-0.4-3.6-1.2s-1.3-1.9-1.3-3.4s0.6-2.6,1.9-3.4s2.9-1.3,4.8-1.3h3.9v-2c0-1.1-0.4-2-1.1-2.7s-1.7-1-3-1
				c-1.2,0-2.2,0.3-2.9,0.9s-1.1,1.3-1.1,2.2h-1.6l0-0.1c-0.1-1.2,0.5-2.2,1.5-3.1s2.5-1.4,4.2-1.4s3.1,0.4,4.2,1.3s1.6,2.2,1.6,3.8
				v7.8c0,0.6,0,1.1,0.1,1.6s0.2,1,0.3,1.6H402.1z M396.3,97.4c1.3,0,2.5-0.3,3.5-1s1.7-1.5,2-2.5v-3h-3.9c-1.4,0-2.6,0.3-3.5,1
				s-1.4,1.5-1.4,2.5c0,0.9,0.3,1.6,0.9,2.2S395.3,97.4,396.3,97.4z"/>
			<path fill="#FFFFFF" d="M412.7,94.7l0.5,1.9h0.1l0.6-1.9l4.3-11.9h1.8l-6,15.8h-1.4l-6-15.8h1.8L412.7,94.7z"/>
			<path fill="#FFFFFF" d="M428.8,99c-2.1,0-3.7-0.7-5-2.2s-1.9-3.3-1.9-5.6v-0.8c0-2.3,0.6-4.2,1.9-5.7s2.9-2.2,4.8-2.2
				c1.9,0,3.4,0.6,4.5,1.9s1.6,2.9,1.6,5v1.4h-11v0.5c0,1.8,0.5,3.3,1.4,4.5s2.2,1.8,3.8,1.8c1,0,1.9-0.2,2.7-0.5s1.5-0.7,2-1.3
				l0.7,1.2c-0.6,0.6-1.3,1.1-2.2,1.5S430.1,99,428.8,99z M428.7,84c-1.3,0-2.5,0.5-3.3,1.5s-1.4,2.2-1.5,3.7l0,0.1h9.1v-0.4
				c0-1.4-0.4-2.6-1.1-3.5S430,84,428.7,84z"/>
			<path fill="#FFFFFF" d="M444.2,97.5c1.1,0,2.1-0.3,3-1s1.3-1.6,1.3-2.8h1.6l0,0.1c0,1.5-0.5,2.7-1.7,3.7s-2.6,1.5-4.1,1.5
				c-2.1,0-3.8-0.7-4.9-2.2s-1.8-3.4-1.8-5.7v-0.6c0-2.3,0.6-4.2,1.8-5.7s2.8-2.2,4.9-2.2c1.7,0,3.1,0.5,4.2,1.5s1.7,2.4,1.6,4
				l0,0.1h-1.6c0-1.3-0.4-2.3-1.2-3s-1.8-1.1-3-1.1c-1.7,0-2.9,0.6-3.7,1.8s-1.2,2.7-1.2,4.6v0.6c0,1.9,0.4,3.4,1.2,4.6
				S442.5,97.5,444.2,97.5z"/>
		</g>
		<g>
			<path fill="#FFFFFF" d="M223.8,124.5h-11V136h-3.5v-26h16.3v2.8h-12.8v9h11V124.5z"/>
			<path fill="#FFFFFF" d="M237.7,119.8l-1.8-0.1c-0.9,0-1.7,0.2-2.3,0.7s-1.1,1.1-1.5,1.9V136h-3.5v-19.3h3.1l0.3,2.8
				c0.5-1,1.2-1.8,2-2.3s1.7-0.8,2.8-0.8c0.3,0,0.5,0,0.8,0.1c0.2,0,0.4,0.1,0.6,0.1L237.7,119.8z"/>
			<path fill="#FFFFFF" d="M253.3,136c-0.1-0.6-0.2-1.1-0.3-1.5s-0.1-0.9-0.1-1.3c-0.7,0.9-1.5,1.7-2.6,2.3s-2.2,0.9-3.4,0.9
				c-2,0-3.5-0.5-4.6-1.5c-1.1-1-1.6-2.4-1.6-4.3c0-1.8,0.7-3.3,2.2-4.3c1.5-1,3.5-1.6,6.1-1.6h3.8v-1.9c0-1.1-0.3-2-1-2.7
				c-0.7-0.7-1.7-1-2.9-1c-1.1,0-2.1,0.3-2.8,0.9c-0.7,0.6-1.1,1.3-1.1,2.1l-3.3,0l0-0.1c-0.1-1.4,0.6-2.7,2-3.9
				c1.4-1.2,3.2-1.8,5.4-1.8c2.2,0,4,0.6,5.3,1.7c1.3,1.1,2,2.7,2,4.8v9.3c0,0.7,0,1.4,0.1,2c0.1,0.6,0.2,1.3,0.4,1.9H253.3z
				 M247.4,133.4c1.3,0,2.4-0.3,3.4-1c1-0.7,1.7-1.4,2-2.3V127h-3.9c-1.4,0-2.6,0.4-3.4,1.1c-0.9,0.7-1.3,1.6-1.3,2.5
				c0,0.9,0.3,1.5,0.8,2S246.4,133.4,247.4,133.4z"/>
			<path fill="#FFFFFF" d="M264.7,116.6l0.2,2.9c0.6-1,1.4-1.8,2.4-2.4c1-0.6,2.1-0.8,3.3-0.8c2.1,0,3.7,0.6,4.8,1.8
				c1.1,1.2,1.7,3.1,1.7,5.7V136h-3.5v-12.1c0-1.7-0.3-2.9-1-3.6c-0.7-0.7-1.7-1.1-3.1-1.1c-1.1,0-2,0.2-2.8,0.7
				c-0.8,0.4-1.4,1-1.8,1.8V136h-3.5v-19.3H264.7z"/>
			<path fill="#FFFFFF" d="M290,133.6c1.1,0,2-0.4,2.8-1.1c0.8-0.7,1.2-1.6,1.2-2.7h3.2l0.1,0.1c0,1.7-0.7,3.1-2.1,4.4
				c-1.5,1.3-3.2,1.9-5.1,1.9c-2.7,0-4.8-0.9-6.3-2.8c-1.5-1.8-2.2-4.1-2.2-6.9v-0.8c0-2.7,0.7-5,2.2-6.9s3.6-2.8,6.3-2.8
				c2.2,0,3.9,0.7,5.3,2c1.4,1.3,2,3,2,4.9l0,0.1H294c0-1.2-0.4-2.2-1.2-3c-0.8-0.8-1.7-1.2-2.9-1.2c-1.7,0-3,0.7-3.8,2
				c-0.8,1.3-1.2,3-1.2,4.9v0.8c0,1.9,0.4,3.6,1.2,4.9C287,132.9,288.2,133.6,290,133.6z"/>
			<path fill="#FFFFFF" d="M309.4,136.3c-2.8,0-4.9-0.9-6.5-2.7c-1.6-1.8-2.3-4.1-2.3-7v-0.8c0-2.8,0.8-5.1,2.4-6.9
				c1.6-1.8,3.6-2.7,5.9-2.7c2.6,0,4.5,0.8,5.8,2.4s1.9,3.7,1.9,6.4v1.9h-12.4l-0.1,0.1c0,1.9,0.4,3.5,1.3,4.7
				c0.9,1.2,2.2,1.8,3.9,1.8c1.2,0,2.2-0.2,3.1-0.5c0.9-0.3,1.7-0.8,2.3-1.4l1.4,2.3c-0.7,0.7-1.6,1.2-2.7,1.7
				C312.4,136.1,311,136.3,309.4,136.3z M308.9,119.1c-1.2,0-2.2,0.5-3,1.4c-0.8,0.9-1.3,2.2-1.5,3.6l0,0.1h8.7v-0.3
				c0-1.4-0.3-2.6-1-3.5S310.3,119.1,308.9,119.1z"/>
			<path fill="#FFFFFF" d="M339.6,127.6l0,0.1c0,2.4-0.8,4.5-2.6,6.1c-1.8,1.6-4.1,2.5-7,2.5c-2.9,0-5.3-1-7.2-3.1
				c-1.9-2.1-2.8-4.7-2.8-7.9v-4.6c0-3.2,0.9-5.8,2.8-7.9c1.9-2.1,4.2-3.1,7.2-3.1s5.3,0.8,7,2.3c1.7,1.6,2.6,3.6,2.5,6.2l0,0.1
				h-3.4c0-1.8-0.5-3.3-1.6-4.3s-2.6-1.6-4.5-1.6c-2,0-3.5,0.8-4.7,2.4c-1.2,1.6-1.8,3.5-1.8,5.9v4.7c0,2.4,0.6,4.3,1.8,5.9
				c1.2,1.6,2.7,2.4,4.7,2.4c2,0,3.5-0.5,4.5-1.6s1.6-2.5,1.6-4.4H339.6z"/>
			<path fill="#FFFFFF" d="M342.9,126.1c0-2.9,0.8-5.2,2.3-7.1s3.6-2.8,6.3-2.8c2.7,0,4.8,0.9,6.3,2.8s2.3,4.2,2.3,7.1v0.4
				c0,2.9-0.8,5.2-2.3,7.1c-1.5,1.8-3.7,2.8-6.3,2.8s-4.8-0.9-6.3-2.8c-1.6-1.8-2.3-4.2-2.3-7.1V126.1z M346.4,126.5
				c0,2,0.4,3.7,1.3,5.1c0.9,1.3,2.1,2,3.8,2c1.7,0,3-0.7,3.8-2c0.9-1.3,1.3-3,1.3-5.1v-0.4c0-2-0.4-3.7-1.3-5.1
				c-0.9-1.3-2.2-2-3.8-2c-1.7,0-3,0.7-3.8,2c-0.9,1.3-1.3,3-1.3,5.1V126.5z"/>
			<path fill="#FFFFFF" d="M367.7,116.6l0.2,2.9c0.6-1,1.4-1.8,2.4-2.4c1-0.6,2.1-0.8,3.3-0.8c2.1,0,3.7,0.6,4.8,1.8
				c1.1,1.2,1.7,3.1,1.7,5.7V136h-3.5v-12.1c0-1.7-0.3-2.9-1-3.6c-0.7-0.7-1.7-1.1-3.1-1.1c-1.1,0-2,0.2-2.8,0.7
				c-0.8,0.4-1.4,1-1.8,1.8V136h-3.5v-19.3H367.7z"/>
			<path fill="#FFFFFF" d="M388.5,116.6l0.2,2.9c0.6-1,1.4-1.8,2.4-2.4c1-0.6,2.1-0.8,3.3-0.8c2.1,0,3.7,0.6,4.8,1.8
				c1.1,1.2,1.7,3.1,1.7,5.7V136h-3.5v-12.1c0-1.7-0.3-2.9-1-3.6c-0.7-0.7-1.7-1.1-3.1-1.1c-1.1,0-2,0.2-2.8,0.7
				c-0.8,0.4-1.4,1-1.8,1.8V136h-3.5v-19.3H388.5z"/>
			<path fill="#FFFFFF" d="M414.1,136.3c-2.8,0-4.9-0.9-6.5-2.7c-1.6-1.8-2.3-4.1-2.3-7v-0.8c0-2.8,0.8-5.1,2.4-6.9
				c1.6-1.8,3.6-2.7,5.9-2.7c2.6,0,4.5,0.8,5.8,2.4s1.9,3.7,1.9,6.4v1.9h-12.4l-0.1,0.1c0,1.9,0.4,3.5,1.3,4.7
				c0.9,1.2,2.2,1.8,3.9,1.8c1.2,0,2.2-0.2,3.1-0.5c0.9-0.3,1.7-0.8,2.3-1.4l1.4,2.3c-0.7,0.7-1.6,1.2-2.7,1.7
				C417.1,136.1,415.7,136.3,414.1,136.3z M413.6,119.1c-1.2,0-2.2,0.5-3,1.4c-0.8,0.9-1.3,2.2-1.5,3.6l0,0.1h8.7v-0.3
				c0-1.4-0.3-2.6-1-3.5S415,119.1,413.6,119.1z"/>
			<path fill="#FFFFFF" d="M432.9,133.6c1.1,0,2-0.4,2.8-1.1c0.8-0.7,1.2-1.6,1.2-2.7h3.2l0.1,0.1c0,1.7-0.7,3.1-2.1,4.4
				c-1.5,1.3-3.2,1.9-5.1,1.9c-2.7,0-4.8-0.9-6.3-2.8c-1.5-1.8-2.2-4.1-2.2-6.9v-0.8c0-2.7,0.7-5,2.2-6.9s3.6-2.8,6.3-2.8
				c2.2,0,3.9,0.7,5.3,2c1.4,1.3,2,3,2,4.9l0,0.1H437c0-1.2-0.4-2.2-1.2-3c-0.8-0.8-1.7-1.2-2.9-1.2c-1.7,0-3,0.7-3.8,2
				c-0.8,1.3-1.2,3-1.2,4.9v0.8c0,1.9,0.4,3.6,1.2,4.9C429.9,132.9,431.2,133.6,432.9,133.6z"/>
			<path fill="#FFFFFF" d="M449.3,112v4.7h3.7v2.6h-3.7V131c0,0.9,0.2,1.5,0.6,1.9c0.4,0.4,0.9,0.6,1.5,0.6c0.2,0,0.4,0,0.7-0.1
				s0.5-0.1,0.6-0.2l0.5,2.4c-0.3,0.2-0.6,0.4-1.2,0.5c-0.5,0.1-1,0.2-1.5,0.2c-1.4,0-2.6-0.4-3.4-1.3c-0.8-0.9-1.3-2.2-1.3-4.1
				v-11.7h-3.1v-2.6h3.1V112H449.3z"/>
		</g>
	</g>
</g>
</svg>
