<?xml version="1.0" encoding="UTF-8" standalone="no"?>
<!-- Created with Inkscape (http://www.inkscape.org/) -->
<svg xmlns:dc="http://purl.org/dc/elements/1.1/" xmlns:cc="http://creativecommons.org/ns#" xmlns:rdf="http://www.w3.org/1999/02/22-rdf-syntax-ns#" xmlns:svg="http://www.w3.org/2000/svg" xmlns="http://www.w3.org/2000/svg" xmlns:sodipodi="http://sodipodi.sourceforge.net/DTD/sodipodi-0.dtd" xmlns:inkscape="http://www.inkscape.org/namespaces/inkscape" version="1.1" width="232" height="66" id="svg2" xml:space="preserve" inkscape:version="0.48.4 r9939" sodipodi:docname="logo_nfr.svg"><sodipodi:namedview pagecolor="#ffffff" bordercolor="#666666" borderopacity="1" objecttolerance="10" gridtolerance="10" guidetolerance="10" inkscape:pageopacity="0" inkscape:pageshadow="2" inkscape:window-width="1920" inkscape:window-height="1004" id="namedview82" showgrid="false" inkscape:zoom="2.5980882" inkscape:cx="161.62719" inkscape:cy="43.584608" inkscape:window-x="0" inkscape:window-y="24" inkscape:window-maximized="1" inkscape:current-layer="svg2"/><metadata id="metadata8"><rdf:RDF><cc:Work rdf:about=""><dc:format>image/svg+xml</dc:format><dc:type rdf:resource="http://purl.org/dc/dcmitype/StillImage"/><dc:title/></cc:Work></rdf:RDF></metadata><defs id="defs6"><clipPath id="clipPath18"><path d="m 0,141.228 345.614,0 L 345.614,0 0,0 0,141.228 z" id="path20" inkscape:connector-curvature="0"/></clipPath></defs><g transform="matrix(0.85047039,0,0,-0.85047039,-0.00760993,107.32188)" id="g10"><path style="fill:#000000;fill-opacity:1;fill-rule:nonzero;stroke:none" id="path3059" d="m 0,48.568 272.808,0 0,42.982 L 0,91.55 0,48.568 z" inkscape:connector-curvature="0"/><path style="fill:#000000;fill-opacity:1;fill-rule:nonzero;stroke:none" id="path3061" d="m 0,48.568 272.808,0 0,42.982 L 0,91.55 0,48.568 z" inkscape:connector-curvature="0"/><path style="fill:#000000;fill-opacity:1;fill-rule:nonzero;stroke:none" id="path3063" d="m 0,48.568 272.808,0 0,42.982 L 0,91.55 0,48.568 z" inkscape:connector-curvature="0"/><path d="m 0,48.568 272.808,0 0,42.982 L 0,91.55 0,48.568 z" id="path12" style="fill:#000000;fill-opacity:1;fill-rule:nonzero;stroke:none" inkscape:connector-curvature="0"/><g id="g14"><g clip-path="url(#clipPath18)" id="g16"><g transform="translate(6.3018,103.8594)" id="g22"><path d="m 0,0 c 0,0 -1.861,0.23 -2.648,0.23 -1.549,0 -2.418,-0.543 -2.418,-1.9 0,-1.658 0.841,-1.861 2.553,-2.133 1.792,-0.285 2.771,-0.693 2.771,-2.404 0,-2.117 -1.006,-2.852 -2.879,-2.852 -1.02,0 -2.906,0.217 -2.906,0.217 l 0.054,0.477 c 0,0 1.873,-0.233 2.838,-0.233 1.548,0 2.377,0.653 2.377,2.35 0,1.387 -0.707,1.699 -2.377,1.957 -1.861,0.285 -2.947,0.598 -2.947,2.594 0,1.752 1.127,2.388 2.934,2.388 1.044,0 2.702,-0.216 2.702,-0.216 L 0,0 z" id="path24" style="fill:#1d1d1d;fill-opacity:1;fill-rule:nonzero;stroke:none" inkscape:connector-curvature="0"/></g><path d="m 9.931,104.402 0.488,0 0,-9.506 -0.488,0 0,9.506 z" id="path26" style="fill:#1d1d1d;fill-opacity:1;fill-rule:nonzero;stroke:none" inkscape:connector-curvature="0"/><g transform="translate(13.0693,104.4023)" id="g28"><path d="m 0,0 6.789,0 0,-0.461 -3.137,0 0,-9.045 -0.488,0 0,9.045 L 0,-0.461 0,0 z" id="path30" style="fill:#1d1d1d;fill-opacity:1;fill-rule:nonzero;stroke:none" inkscape:connector-curvature="0"/></g><g transform="translate(22.6191,104.4023)" id="g32"><path d="m 0,0 5.554,0 0,-0.461 -5.065,0 0,-3.926 4.25,0 0,-0.461 -4.25,0 0,-4.197 5.065,0 0,-0.461 L 0,-9.506 0,0 z" id="path34" style="fill:#1d1d1d;fill-opacity:1;fill-rule:nonzero;stroke:none" inkscape:connector-curvature="0"/></g><g transform="translate(42.4775,99.6074)" id="g36"><path d="m 0,0 c 0,2.813 -0.57,4.455 -3.123,4.455 -2.58,0 -3.123,-1.615 -3.123,-4.455 0,-2.852 0.502,-4.371 3.123,-4.371 C -0.502,-4.371 0,-2.986 0,0 m -6.762,0 c 0,3.098 0.733,4.918 3.639,4.918 2.906,0 3.64,-1.793 3.64,-4.918 0,-3.285 -0.72,-4.834 -3.64,-4.834 -2.934,0 -3.639,1.684 -3.639,4.834" id="path38" style="fill:#1d1d1d;fill-opacity:1;fill-rule:nonzero;stroke:none" inkscape:connector-curvature="0"/></g><g transform="translate(46.5693,104.4023)" id="g40"><path d="m 0,0 5.568,0 0,-0.461 -5.079,0 0,-4.293 4.265,0 0,-0.461 -4.265,0 0,-4.291 L 0,-9.506 0,0 z" id="path42" style="fill:#1d1d1d;fill-opacity:1;fill-rule:nonzero;stroke:none" inkscape:connector-curvature="0"/></g><g transform="translate(55.5771,104.4023)" id="g44"><path d="m 0,0 5.567,0 0,-0.461 -5.079,0 0,-4.293 4.264,0 0,-0.461 -4.264,0 0,-4.291 L 0,-9.506 0,0 z" id="path46" style="fill:#1d1d1d;fill-opacity:1;fill-rule:nonzero;stroke:none" inkscape:connector-curvature="0"/></g><path d="m 64.476,104.402 0.488,0 0,-9.506 -0.488,0 0,9.506 z" id="path48" style="fill:#1d1d1d;fill-opacity:1;fill-rule:nonzero;stroke:none" inkscape:connector-curvature="0"/><g transform="translate(74.2959,95.0449)" id="g50"><path d="m 0,0 c 0,0 -1.439,-0.271 -2.514,-0.271 -2.797,0 -3.381,1.82 -3.381,4.834 0,2.96 0.489,4.917 3.381,4.917 C -1.223,9.48 0,9.221 0,9.221 L -0.041,8.746 c 0,0 -1.372,0.272 -2.473,0.272 -2.552,0 -2.865,-1.752 -2.865,-4.455 0,-2.715 0.367,-4.372 2.865,-4.372 0.965,0 2.473,0.272 2.473,0.272 L 0,0 z" id="path52" style="fill:#1d1d1d;fill-opacity:1;fill-rule:nonzero;stroke:none" inkscape:connector-curvature="0"/></g><path d="m 77.558,104.402 0.488,0 0,-9.506 -0.488,0 0,9.506 z" id="path54" style="fill:#1d1d1d;fill-opacity:1;fill-rule:nonzero;stroke:none" inkscape:connector-curvature="0"/><g transform="translate(82.0947,104.4023)" id="g56"><path d="m 0,0 5.555,0 0,-0.461 -5.066,0 0,-3.926 4.251,0 0,-0.461 -4.251,0 0,-4.197 5.066,0 0,-0.461 L 0,-9.506 0,0 z" id="path58" style="fill:#1d1d1d;fill-opacity:1;fill-rule:nonzero;stroke:none" inkscape:connector-curvature="0"/></g><g transform="translate(91.2246,94.8965)" id="g60"><path d="m 0,0 0,9.506 0.489,0 0,-9.045 4.631,0 L 5.12,0 0,0 z" id="path62" style="fill:#1d1d1d;fill-opacity:1;fill-rule:nonzero;stroke:none" inkscape:connector-curvature="0"/></g><g transform="translate(107.8643,103.9414)" id="g64"><path d="m 0,0 -3.041,0 0,-8.584 3.041,0 c 2.037,0 2.662,2.391 2.662,4.428 C 2.662,-2.119 2.037,0 0,0 m -3.53,-9.045 0,9.506 3.53,0 c 2.391,0 3.178,-2.227 3.178,-4.617 0,-2.391 -0.787,-4.889 -3.178,-4.889 l -3.53,0 z" id="path66" style="fill:#1d1d1d;fill-opacity:1;fill-rule:nonzero;stroke:none" inkscape:connector-curvature="0"/></g><g transform="translate(114.5635,104.4023)" id="g68"><path d="m 0,0 5.555,0 0,-0.461 -5.066,0 0,-3.926 4.251,0 0,-0.461 -4.251,0 0,-4.197 5.066,0 0,-0.461 L 0,-9.506 0,0 z" id="path70" style="fill:#1d1d1d;fill-opacity:1;fill-rule:nonzero;stroke:none" inkscape:connector-curvature="0"/></g><g transform="translate(128.2441,94.8965)" id="g72"><path d="m 0,0 0,9.506 0.489,0 0,-9.045 4.631,0 L 5.12,0 0,0 z" id="path74" style="fill:#1d1d1d;fill-opacity:1;fill-rule:nonzero;stroke:none" inkscape:connector-curvature="0"/></g><g transform="translate(137.4131,98.2773)" id="g76"><path d="M 0,0 4.184,0 2.459,5.664 1.725,5.664 0,0 z m 1.386,6.125 1.439,0 2.893,-9.479 -0.489,0 -0.91,2.893 -4.454,0 -0.91,-2.92 -0.489,0 2.92,9.506 z" id="path78" style="fill:#1d1d1d;fill-opacity:1;fill-rule:nonzero;stroke:none" inkscape:connector-curvature="0"/></g><g transform="translate(156.9072,104.4023)" id="g80"><path d="m 0,0 -2.635,-9.506 -1.576,0 -2.702,9.506 0.489,0 2.608,-9.045 0.787,0 L -0.489,0 0,0 z" id="path82" style="fill:#1d1d1d;fill-opacity:1;fill-rule:nonzero;stroke:none" inkscape:connector-curvature="0"/></g><path d="m 160.033,104.402 0.489,0 0,-9.506 -0.489,0 0,9.506 z" id="path84" style="fill:#1d1d1d;fill-opacity:1;fill-rule:nonzero;stroke:none" inkscape:connector-curvature="0"/><g transform="translate(164.5713,94.8965)" id="g86"><path d="m 0,0 0,9.506 0.488,0 0,-9.045 4.631,0 L 5.119,0 0,0 z" id="path88" style="fill:#1d1d1d;fill-opacity:1;fill-rule:nonzero;stroke:none" inkscape:connector-curvature="0"/></g><g transform="translate(173.1299,94.8965)" id="g90"><path d="m 0,0 0,9.506 0.488,0 0,-9.045 4.631,0 L 5.119,0 0,0 z" id="path92" style="fill:#1d1d1d;fill-opacity:1;fill-rule:nonzero;stroke:none" inkscape:connector-curvature="0"/></g><g transform="translate(181.6885,104.4023)" id="g94"><path d="m 0,0 5.555,0 0,-0.461 -5.067,0 0,-3.926 4.251,0 0,-0.461 -4.251,0 0,-4.197 5.067,0 0,-0.461 L 0,-9.506 0,0 z" id="path96" style="fill:#1d1d1d;fill-opacity:1;fill-rule:nonzero;stroke:none" inkscape:connector-curvature="0"/></g><g transform="translate(198.8994,103.9414)" id="g98"><path d="m 0,0 -3.042,0 0,-8.584 3.042,0 c 2.037,0 2.662,2.391 2.662,4.428 C 2.662,-2.119 2.037,0 0,0 m -3.531,-9.045 0,9.506 3.531,0 c 2.391,0 3.178,-2.227 3.178,-4.617 0,-2.391 -0.787,-4.889 -3.178,-4.889 l -3.531,0 z" id="path100" style="fill:#1d1d1d;fill-opacity:1;fill-rule:nonzero;stroke:none" inkscape:connector-curvature="0"/></g><g transform="translate(205.5986,104.4023)" id="g102"><path d="m 0,0 5.555,0 0,-0.461 -5.067,0 0,-3.926 4.251,0 0,-0.461 -4.251,0 0,-4.197 5.067,0 0,-0.461 L 0,-9.506 0,0 z" id="path104" style="fill:#1d1d1d;fill-opacity:1;fill-rule:nonzero;stroke:none" inkscape:connector-curvature="0"/></g><g transform="translate(219.2783,104.4023)" id="g106"><path d="m 0,0 1.154,0 4.523,-9.045 0.366,0 0,9.045 0.489,0 0,-9.506 -1.154,0 -4.536,9.045 -0.353,0 0,-9.045 L 0,-9.506 0,0 z" id="path108" style="fill:#1d1d1d;fill-opacity:1;fill-rule:nonzero;stroke:none" inkscape:connector-curvature="0"/></g><g transform="translate(230.5811,98.2773)" id="g110"><path d="M 0,0 4.183,0 2.458,5.664 1.725,5.664 0,0 z m 1.385,6.125 1.439,0 2.893,-9.479 -0.488,0 -0.911,2.893 -4.454,0 -0.909,-2.92 -0.49,0 2.92,9.506 z" id="path112" style="fill:#1d1d1d;fill-opacity:1;fill-rule:nonzero;stroke:none" inkscape:connector-curvature="0"/></g><g transform="translate(239.5342,104.4023)" id="g114"><path d="m 0,0 1.154,0 4.523,-9.045 0.366,0 0,9.045 0.489,0 0,-9.506 -1.154,0 -4.536,9.045 -0.353,0 0,-9.045 L 0,-9.506 0,0 z" id="path116" style="fill:#1d1d1d;fill-opacity:1;fill-rule:nonzero;stroke:none" inkscape:connector-curvature="0"/></g><g transform="translate(248.8271,104.4023)" id="g118"><path d="m 0,0 6.79,0 0,-0.461 -3.137,0 0,-9.045 -0.489,0 0,9.045 L 0,-0.461 0,0 z" id="path120" style="fill:#1d1d1d;fill-opacity:1;fill-rule:nonzero;stroke:none" inkscape:connector-curvature="0"/></g><g transform="translate(258.3779,104.4023)" id="g122"><path d="m 0,0 5.554,0 0,-0.461 -5.066,0 0,-3.926 4.25,0 0,-0.461 -4.25,0 0,-4.197 5.066,0 0,-0.461 L 0,-9.506 0,0 z" id="path124" style="fill:#1d1d1d;fill-opacity:1;fill-rule:nonzero;stroke:none" inkscape:connector-curvature="0"/></g><g transform="translate(272.4092,103.8594)" id="g126"><path d="m 0,0 c 0,0 -1.86,0.23 -2.648,0.23 -1.548,0 -2.417,-0.543 -2.417,-1.9 0,-1.658 0.841,-1.861 2.553,-2.133 1.792,-0.285 2.77,-0.693 2.77,-2.404 0,-2.117 -1.005,-2.852 -2.879,-2.852 -1.019,0 -2.906,0.217 -2.906,0.217 l 0.054,0.477 c 0,0 1.874,-0.233 2.838,-0.233 1.549,0 2.377,0.653 2.377,2.35 0,1.387 -0.707,1.699 -2.377,1.957 -1.86,0.285 -2.947,0.598 -2.947,2.594 0,1.752 1.128,2.388 2.934,2.388 1.045,0 2.703,-0.216 2.703,-0.216 L 0,0 z" id="path128" style="fill:#1d1d1d;fill-opacity:1;fill-rule:nonzero;stroke:none" inkscape:connector-curvature="0"/></g><g transform="translate(21.959,48.5684)" id="g130"><path d="m 0,0 0,29.997 2.101,0 0,-2.4 c 0,0 5.339,2.941 10.499,2.941 8.159,0 9.839,-3.301 9.839,-14.939 l 0,-15.599 -2.1,0 0,15.478 c 0,10.199 -1.08,13.14 -7.739,13.14 -5.34,0 -10.499,-3 -10.499,-3 L 2.101,0 0,0 z" id="path132" style="fill:#ffffff;fill-opacity:1;fill-rule:nonzero;stroke:none" inkscape:connector-curvature="0"/></g><g transform="translate(62.0986,63.5654)" id="g134"><path d="m 0,0 c -4.68,-0.478 -6.299,-3.059 -6.299,-6.779 0,-4.378 2.1,-6.839 5.459,-6.839 5.94,0 12,2.4 12,2.4 L 11.16,1.08 0,0 z m 13.26,-11.038 c 0.179,-1.74 2.46,-2.34 4.5,-2.52 l -0.12,-1.92 c -2.58,0 -4.861,0.54 -6.181,2.401 0,0 -5.579,-2.461 -12.359,-2.461 -4.68,0 -7.62,2.941 -7.62,8.759 0,5.1 2.34,8.041 8.28,8.64 l 11.4,1.2 0,3.119 c 0,5.22 -2.28,7.32 -6.66,7.32 -4.38,0 -11.34,-1.02 -11.34,-1.02 l -0.18,1.981 c 0,0 6.72,1.08 11.52,1.08 6.06,0 8.76,-3.18 8.76,-9.361 l 0,-17.218 z" id="path136" style="fill:#ffffff;fill-opacity:1;fill-rule:nonzero;stroke:none" inkscape:connector-curvature="0"/></g><g transform="translate(87.4189,48.5684)" id="g138"><path d="m 0,0 0,29.997 2.1,0 0,-2.4 c 0,0 5.339,2.941 10.5,2.941 8.159,0 9.839,-3.301 9.839,-14.939 l 0,-15.599 -2.1,0 0,15.478 c 0,10.199 -1.08,13.14 -7.739,13.14 -5.34,0 -10.5,-3 -10.5,-3 L 2.1,0 0,0 z" id="path140" style="fill:#ffffff;fill-opacity:1;fill-rule:nonzero;stroke:none" inkscape:connector-curvature="0"/></g><g transform="translate(124.6787,76.6455)" id="g142"><path d="m 0,0 0,-15.719 c 0,-8.938 0.66,-11.038 5.52,-11.038 1.679,0 5.879,0.479 5.879,0.479 l 0.18,-1.92 c 0,0 -3.96,-0.479 -6.059,-0.479 -5.46,0 -7.62,2.039 -7.62,10.679 l 0,17.998 -4.74,0 0,1.92 4.74,0 0,9.78 2.1,0 0,-9.78 10.92,0 L 10.92,0 0,0 z" id="path144" style="fill:#ffffff;fill-opacity:1;fill-rule:nonzero;stroke:none" inkscape:connector-curvature="0"/></g><g transform="translate(162.957,64.6455)" id="g146"><path d="m 0,0 c 0,9.18 -2.94,12.541 -9.18,12.541 -5.999,0 -9.899,-3.42 -9.899,-12.541 L 0,0 z m 0.96,-14.157 0.12,-1.92 c 0,0 -6.72,-0.541 -11.1,-0.541 -8.939,0.06 -11.28,5.76 -11.28,15.538 0,11.881 5.281,15.541 12.12,15.541 7.38,0 11.4,-4.022 11.4,-14.4 l 0,-1.98 -21.299,0 c 0,-8.279 2.16,-12.779 9.119,-12.779 4.2,0 10.92,0.541 10.92,0.541" id="path148" style="fill:#ffffff;fill-opacity:1;fill-rule:nonzero;stroke:none" inkscape:connector-curvature="0"/></g><g transform="translate(192.5361,76.2256)" id="g150"><path d="m 0,0 c 0,0 -6.119,0.961 -10.199,0.961 -3.84,0 -8.039,-1.141 -8.039,-6 0,-3.721 1.619,-4.859 8.519,-5.94 7.86,-1.261 10.919,-2.399 10.919,-8.041 0,-7.018 -4.319,-9.178 -11.399,-9.178 -3.42,0 -9.9,0.961 -9.9,0.961 l 0.24,1.98 c 0,0 6.48,-1.021 9.54,-1.021 5.639,0 9.299,1.32 9.299,7.079 0,4.32 -2.16,5.161 -9.299,6.241 -7.02,1.079 -10.14,2.218 -10.14,7.798 0,6.359 5.4,8.041 10.26,8.041 4.619,0 10.32,-0.901 10.32,-0.901 L 0,0 z" id="path152" style="fill:#ffffff;fill-opacity:1;fill-rule:nonzero;stroke:none" inkscape:connector-curvature="0"/></g><path d="m 203.337,53.367 2.399,0 0,-4.799 -2.399,0 0,4.799 z" id="path154" style="fill:#ffffff;fill-opacity:1;fill-rule:nonzero;stroke:none" inkscape:connector-curvature="0"/><g transform="translate(220.6758,48.5684)" id="g156"><path d="m 0,0 -2.101,0 0,28.077 -4.138,0 0,1.92 4.138,0 0,3.659 c 0,8.641 2.161,10.68 7.621,10.68 2.1,0 5.52,-0.18 5.52,-0.18 l 0,-1.859 c 0,0 -3.84,0.119 -5.52,0.119 C 1.44,42.416 0,40.797 0,33.598 l 0,-3.601 9.72,0 0,-1.92 -9.72,0 L 0,0 z" id="path158" style="fill:#ffffff;fill-opacity:1;fill-rule:nonzero;stroke:none" inkscape:connector-curvature="0"/></g><g transform="translate(238.0752,78.5654)" id="g160"><path d="m 0,0 2.1,0 0,-4.68 c 0,0 5.279,4.02 11.879,5.28 l 0,-2.039 C 8.1,-2.58 2.1,-6.66 2.1,-6.66 l 0,-23.337 -2.1,0 L 0,0 z" id="path162" style="fill:#ffffff;fill-opacity:1;fill-rule:nonzero;stroke:none" inkscape:connector-curvature="0"/></g></g></g></g><style xmlns="http://www.w3.org/1999/xhtml" charset="utf-8" type="text/css" class="firebugResetStyles">/* See license.txt for terms of usage */
/** reset styling **/
.firebugResetStyles {
    z-index: 2147483646 !important;
    top: 0 !important;
    left: 0 !important;
    display: block !important;
    border: 0 none !important;
    margin: 0 !important;
    padding: 0 !important;
    outline: 0 !important;
    min-width: 0 !important;
    max-width: none !important;
    min-height: 0 !important;
    max-height: none !important;
    position: fixed !important;
    transform: rotate(0deg) !important;
    transform-origin: 50% 50% !important;
    border-radius: 0 !important;
    box-shadow: none !important;
    background: transparent none !important;
    pointer-events: none !important;
    white-space: normal !important;
}
style.firebugResetStyles {
    display: none !important;
}

.firebugBlockBackgroundColor {
    background-color: transparent !important;
}

.firebugResetStyles:before, .firebugResetStyles:after {
    content: "" !important;
}
/**actual styling to be modified by firebug theme**/
.firebugCanvas {
    display: none !important;
}

/* * * * * * * * * * * * * * * * * * * * * * * * * * * * * * * * * * * * * * * * * * * * * * * * */
.firebugLayoutBox {
    width: auto !important;
    position: static !important;
}

.firebugLayoutBoxOffset {
    opacity: 0.8 !important;
    position: fixed !important;
}

.firebugLayoutLine {
    opacity: 0.4 !important;
    background-color: #000000 !important;
}

.firebugLayoutLineLeft, .firebugLayoutLineRight {
    width: 1px !important;
    height: 100% !important;
}

.firebugLayoutLineTop, .firebugLayoutLineBottom {
    width: 100% !important;
    height: 1px !important;
}

.firebugLayoutLineTop {
    margin-top: -1px !important;
    border-top: 1px solid #999999 !important;
}

.firebugLayoutLineRight {
    border-right: 1px solid #999999 !important;
}

.firebugLayoutLineBottom {
    border-bottom: 1px solid #999999 !important;
}

.firebugLayoutLineLeft {
    margin-left: -1px !important;
    border-left: 1px solid #999999 !important;
}

/* * * * * * * * * * * * * * * * * * * * * * * * * * * * * * * * * * * * * * * * * * * * * * * * */
.firebugLayoutBoxParent {
    border-top: 0 none !important;
    border-right: 1px dashed #E00 !important;
    border-bottom: 1px dashed #E00 !important;
    border-left: 0 none !important;
    position: fixed !important;
    width: auto !important;
}

.firebugRuler{
    position: absolute !important;
}

.firebugRulerH {
    top: -15px !important;
    left: 0 !important;
    width: 100% !important;
    height: 14px !important;
    background: url("data:image/png,%89PNG%0D%0A%1A%0A%00%00%00%0DIHDR%00%00%13%88%00%00%00%0E%08%02%00%00%00L%25a%0A%00%00%00%04gAMA%00%00%D6%D8%D4OX2%00%00%00%19tEXtSoftware%00Adobe%20ImageReadyq%C9e%3C%00%00%04%F8IDATx%DA%EC%DD%D1n%E2%3A%00E%D1%80%F8%FF%EF%E2%AF2%95%D0D4%0E%C1%14%B0%8Fa-%E9%3E%CC%9C%87n%B9%81%A6W0%1C%A6i%9A%E7y%0As8%1CT%A9R%A5J%95*U%AAT%A9R%A5J%95*U%AAT%A9R%A5J%95*U%AAT%A9R%A5J%95*U%AAT%A9R%A5J%95*U%AAT%A9R%A5J%95*U%AAT%A9R%A5J%95*U%AATE9%FE%FCw%3E%9F%AF%2B%2F%BA%97%FDT%1D~K(%5C%9D%D5%EA%1B%5C%86%B5%A9%BDU%B5y%80%ED%AB*%03%FAV9%AB%E1%CEj%E7%82%EF%FB%18%BC%AEJ8%AB%FA'%D2%BEU9%D7U%ECc0%E1%A2r%5DynwVi%CFW%7F%BB%17%7Dy%EACU%CD%0E%F0%FA%3BX%FEbV%FEM%9B%2B%AD%BE%AA%E5%95v%AB%AA%E3E5%DCu%15rV9%07%B5%7F%B5w%FCm%BA%BE%AA%FBY%3D%14%F0%EE%C7%60%0EU%AAT%A9R%A5J%95*U%AAT%A9R%A5J%95*U%AAT%A9R%A5J%95*U%AAT%A9R%A5J%95*U%AAT%A9R%A5JU%88%D3%F5%1F%AE%DF%3B%1B%F2%3E%DAUCNa%F92%D02%AC%7Dm%F9%3A%D4%F2%8B6%AE*%BF%5C%C2Ym~9g5%D0Y%95%17%7C%C8c%B0%7C%18%26%9CU%CD%13i%F7%AA%90%B3Z%7D%95%B4%C7%60%E6E%B5%BC%05%B4%FBY%95U%9E%DB%FD%1C%FC%E0%9F%83%7F%BE%17%7DkjMU%E3%03%AC%7CWj%DF%83%9An%BCG%AE%F1%95%96yQ%0Dq%5Dy%00%3Et%B5'%FC6%5DS%95pV%95%01%81%FF'%07%00%00%00%00%00%00%00%00%00%F8x%C7%F0%BE%9COp%5D%C9%7C%AD%E7%E6%EBV%FB%1E%E0(%07%E5%AC%C6%3A%ABi%9C%8F%C6%0E9%AB%C0'%D2%8E%9F%F99%D0E%B5%99%14%F5%0D%CD%7F%24%C6%DEH%B8%E9rV%DFs%DB%D0%F7%00k%FE%1D%84%84%83J%B8%E3%BA%FB%EF%20%84%1C%D7%AD%B0%8E%D7U%C8Y%05%1E%D4t%EF%AD%95Q%BF8w%BF%E9%0A%BF%EB%03%00%00%00%00%00%00%00%00%00%B8vJ%8E%BB%F5%B1u%8Cx%80%E1o%5E%CA9%AB%CB%CB%8E%03%DF%1D%B7T%25%9C%D5(%EFJM8%AB%CC'%D2%B2*%A4s%E7c6%FB%3E%FA%A2%1E%80~%0E%3E%DA%10x%5D%95Uig%15u%15%ED%7C%14%B6%87%A1%3B%FCo8%A8%D8o%D3%ADO%01%EDx%83%1A~%1B%9FpP%A3%DC%C6'%9C%95gK%00%00%00%00%00%00%00%00%00%20%D9%C9%11%D0%C0%40%AF%3F%EE%EE%92%94%D6%16X%B5%BCMH%15%2F%BF%D4%A7%C87%F1%8E%F2%81%AE%AAvzr%DA2%ABV%17%7C%E63%83%E7I%DC%C6%0Bs%1B%EF6%1E%00%00%00%00%00%00%00%00%00%80cr%9CW%FF%7F%C6%01%0E%F1%CE%A5%84%B3%CA%BC%E0%CB%AA%84%CE%F9%BF)%EC%13%08WU%AE%AB%B1%AE%2BO%EC%8E%CBYe%FE%8CN%ABr%5Dy%60~%CFA%0D%F4%AE%D4%BE%C75%CA%EDVB%EA(%B7%F1%09g%E5%D9%12%00%00%00%00%00%00%00%00%00H%F6%EB%13S%E7y%5E%5E%FB%98%F0%22%D1%B2'%A7%F0%92%B1%BC%24z3%AC%7Dm%60%D5%92%B4%7CEUO%5E%F0%AA*%3BU%B9%AE%3E%A0j%94%07%A0%C7%A0%AB%FD%B5%3F%A0%F7%03T%3Dy%D7%F7%D6%D4%C0%AAU%D2%E6%DFt%3F%A8%CC%AA%F2%86%B9%D7%F5%1F%18%E6%01%F8%CC%D5%9E%F0%F3z%88%AA%90%EF%20%00%00%00%00%00%00%00%00%00%C0%A6%D3%EA%CFi%AFb%2C%7BB%0A%2B%C3%1A%D7%06V%D5%07%A8r%5D%3D%D9%A6%CAu%F5%25%CF%A2%99%97zNX%60%95%AB%5DUZ%D5%FBR%03%AB%1C%D4k%9F%3F%BB%5C%FF%81a%AE%AB'%7F%F3%EA%FE%F3z%94%AA%D8%DF%5B%01%00%00%00%00%00%00%00%00%00%8E%FB%F3%F2%B1%1B%8DWU%AAT%A9R%A5J%95*U%AAT%A9R%A5J%95*U%AAT%A9R%A5J%95*U%AAT%A9R%A5J%95*U%AAT%A9R%A5J%95*U%AAT%A9R%A5J%95*U%AAT%A9R%A5J%95*UiU%C7%BBe%E7%F3%B9%CB%AAJ%95*U%AAT%A9R%A5J%95*U%AAT%A9R%A5J%95*U%AAT%A9R%A5J%95*U%AAT%A9R%A5J%95*U%AAT%A9R%A5J%95*U%AAT%A9R%A5J%95*U%AAT%A9R%A5*%AAj%FD%C6%D4%5Eo%90%B5Z%ADV%AB%D5j%B5Z%ADV%AB%D5j%B5Z%ADV%AB%D5j%B5Z%ADV%AB%D5j%B5Z%ADV%AB%D5j%B5Z%ADV%AB%D5j%B5Z%ADV%AB%D5j%B5%86%AF%1B%9F%98%DA%EBm%BBV%AB%D5j%B5Z%ADV%AB%D5j%B5Z%ADV%AB%D5j%B5Z%ADV%AB%D5j%B5Z%ADV%AB%D5j%B5Z%ADV%AB%D5j%B5Z%ADV%AB%D5j%B5Z%AD%D6%E4%F58%01%00%00%00%00%00%00%00%00%00%00%00%00%00%40%85%7F%02%0C%008%C2%D0H%16j%8FX%00%00%00%00IEND%AEB%60%82") repeat-x !important;
    border-top: 1px solid #BBBBBB !important;
    border-right: 1px dashed #BBBBBB !important;
    border-bottom: 1px solid #000000 !important;
}

.firebugRulerV {
    top: 0 !important;
    left: -15px !important;
    width: 14px !important;
    height: 100% !important;
    background: url("data:image/png,%89PNG%0D%0A%1A%0A%00%00%00%0DIHDR%00%00%00%0E%00%00%13%88%08%02%00%00%00%0E%F5%CB%10%00%00%00%04gAMA%00%00%D6%D8%D4OX2%00%00%00%19tEXtSoftware%00Adobe%20ImageReadyq%C9e%3C%00%00%06~IDATx%DA%EC%DD%D1v%A20%14%40Qt%F1%FF%FF%E4%97%D9%07%3BT%19%92%DC%40(%90%EEy%9A5%CB%B6%E8%F6%9Ac%A4%CC0%84%FF%DC%9E%CF%E7%E3%F1%88%DE4%F8%5D%C7%9F%2F%BA%DD%5E%7FI%7D%F18%DDn%BA%C5%FB%DF%97%BFk%F2%10%FF%FD%B4%F2M%A7%FB%FD%FD%B3%22%07p%8F%3F%AE%E3%F4S%8A%8F%40%EEq%9D%BE8D%F0%0EY%A1Uq%B7%EA%1F%81%88V%E8X%3F%B4%CEy%B7h%D1%A2E%EBohU%FC%D9%AF2fO%8BBeD%BE%F7X%0C%97%A4%D6b7%2Ck%A5%12%E3%9B%60v%B7r%C7%1AI%8C%BD%2B%23r%00c0%B2v%9B%AD%CA%26%0C%1Ek%05A%FD%93%D0%2B%A1u%8B%16-%95q%5Ce%DCSO%8E%E4M%23%8B%F7%C2%FE%40%BB%BD%8C%FC%8A%B5V%EBu%40%F9%3B%A72%FA%AE%8C%D4%01%CC%B5%DA%13%9CB%AB%E2I%18%24%B0n%A9%0CZ*Ce%9C%A22%8E%D8NJ%1E%EB%FF%8F%AE%CAP%19*%C3%BAEKe%AC%D1%AAX%8C*%DEH%8F%C5W%A1e%AD%D4%B7%5C%5B%19%C5%DB%0D%EF%9F%19%1D%7B%5E%86%BD%0C%95%A12%AC%5B*%83%96%CAP%19%F62T%86%CAP%19*%83%96%CA%B8Xe%BC%FE)T%19%A1%17xg%7F%DA%CBP%19*%C3%BA%A52T%86%CAP%19%F62T%86%CA%B0n%A9%0CZ%1DV%C6%3D%F3%FCH%DE%B4%B8~%7F%5CZc%F1%D6%1F%AF%84%F9%0F6%E6%EBVt9%0E~%BEr%AF%23%B0%97%A12T%86%CAP%19%B4T%86%CA%B8Re%D8%CBP%19*%C3%BA%A52huX%19%AE%CA%E5%BC%0C%7B%19*CeX%B7h%A9%0C%95%E1%BC%0C%7B%19*CeX%B7T%06%AD%CB%5E%95%2B%BF.%8F%C5%97%D5%E4%7B%EE%82%D6%FB%CF-%9C%FD%B9%CF%3By%7B%19%F62T%86%CA%B0n%D1R%19*%A3%D3%CA%B0%97%A12T%86uKe%D0%EA%B02*%3F1%99%5DB%2B%A4%B5%F8%3A%7C%BA%2B%8Co%7D%5C%EDe%A8%0C%95a%DDR%19%B4T%C66%82fA%B2%ED%DA%9FC%FC%17GZ%06%C9%E1%B3%E5%2C%1A%9FoiB%EB%96%CA%A0%D5qe4%7B%7D%FD%85%F7%5B%ED_%E0s%07%F0k%951%ECr%0D%B5C%D7-g%D1%A8%0C%EB%96%CA%A0%A52T%C6)*%C3%5E%86%CAP%19%D6-%95A%EB*%95q%F8%BB%E3%F9%AB%F6%E21%ACZ%B7%22%B7%9B%3F%02%85%CB%A2%5B%B7%BA%5E%B7%9C%97%E1%BC%0C%EB%16-%95%A12z%AC%0C%BFc%A22T%86uKe%D0%EA%B02V%DD%AD%8A%2B%8CWhe%5E%AF%CF%F5%3B%26%CE%CBh%5C%19%CE%CB%B0%F3%A4%095%A1%CAP%19*Ce%A8%0C%3BO*Ce%A8%0C%95%A12%3A%AD%8C%0A%82%7B%F0v%1F%2FD%A9%5B%9F%EE%EA%26%AF%03%CA%DF9%7B%19*Ce%A8%0C%95%A12T%86%CA%B8Ze%D8%CBP%19*Ce%A8%0C%95%D1ae%EC%F7%89I%E1%B4%D7M%D7P%8BjU%5C%BB%3E%F2%20%D8%CBP%19*Ce%A8%0C%95%A12T%C6%D5*%C3%5E%86%CAP%19*Ce%B4O%07%7B%F0W%7Bw%1C%7C%1A%8C%B3%3B%D1%EE%AA%5C%D6-%EBV%83%80%5E%D0%CA%10%5CU%2BD%E07YU%86%CAP%19*%E3%9A%95%91%D9%A0%C8%AD%5B%EDv%9E%82%FFKOee%E4%8FUe%A8%0C%95%A12T%C6%1F%A9%8C%C8%3D%5B%A5%15%FD%14%22r%E7B%9F%17l%F8%BF%ED%EAf%2B%7F%CF%ECe%D8%CBP%19*Ce%A8%0C%95%E1%93~%7B%19%F62T%86%CAP%19*Ce%A8%0C%E7%13%DA%CBP%19*Ce%A8%0CZf%8B%16-Z%B4h%D1R%19f%8B%16-Z%B4h%D1R%19%B4%CC%16-Z%B4h%D1R%19%B4%CC%16-Z%B4h%D1%A2%A52%CC%16-Z%B4h%D1%A2%A52h%99-Z%B4h%D1%A2%A52h%99-Z%B4h%D1%A2EKe%98-Z%B4h%D1%A2EKe%D02%5B%B4h%D1%A2EKe%D02%5B%B4h%D1%A2E%8B%96%CA0%5B%B4h%D1%A2E%8B%96%CA%A0e%B6h%D1%A2E%8B%96%CA%A0e%B6h%D1%A2E%8B%16-%95a%B6h%D1%A2E%8B%16-%95A%CBl%D1%A2E%8B%16-%95A%CBl%D1%A2E%8B%16-Z*%C3l%D1%A2E%8B%16-Z*%83%96%D9%A2E%8B%16-Z*%83%96%D9%A2E%8B%16-Z%B4T%86%D9%A2E%8B%16-Z%B4T%06-%B3E%8B%16-Z%B4T%06-%B3E%8B%16-Z%B4h%A9%0C%B3E%8B%16-Z%B4h%A9%0CZf%8B%16-Z%B4h%A9%0CZf%8B%16-Z%B4h%D1R%19f%8B%16-Z%B4h%D1R%19%B4%CC%16-Z%B4h%D1R%19%B4%CC%16-Z%B4h%D1%A2%A52%CC%16-Z%B4h%D1%A2%A52h%99-Z%B4h%D1%A2%A52h%99-Z%B4h%D1%A2EKe%98-Z%B4h%D1%A2EKe%D02%5B%B4h%D1%A2EKe%D02%5B%B4h%D1%A2E%8B%96%CA0%5B%B4h%D1%A2E%8B%96%CA%A0e%B6h%D1%A2E%8B%96%CA%A0e%B6h%D1%A2E%8B%16-%95a%B6h%D1%A2E%8B%16-%95A%CBl%D1%A2E%8B%16-%95A%CBl%D1%A2E%8B%16-Z*%C3l%D1%A2E%8B%16-Z*%83%96%D9%A2E%8B%16-Z*%83%96%D9%A2E%8B%16-Z%B4T%86%D9%A2E%8B%16-Z%B4T%06-%B3E%8B%16-Z%B4T%06-%B3E%8B%16-Z%B4h%A9%0C%B3E%8B%16-Z%B4h%A9%0CZf%8B%16-Z%B4h%A9%0CZf%8B%16-Z%B4h%D1R%19f%8B%16-Z%B4h%D1R%19%B4%CC%16-Z%B4h%D1R%19%B4%CC%16-Z%B4h%D1%A2%A52%CC%16-Z%B4h%D1%A2%A52h%99-Z%B4h%D1%A2%A52h%99-Z%B4h%D1%A2EKe%98-Z%B4h%D1%A2EKe%D02%5B%B4h%D1%A2EKe%D02%5B%B4h%D1%A2E%8B%96%CA0%5B%B4h%D1%A2E%8B%96%CA%A0e%B6h%D1%A2E%8B%96%CA%A0e%B6h%D1%A2E%8B%16-%95a%B6h%D1%A2E%8B%16-%95A%CBl%D1%A2E%8B%16-%95A%CBl%D1%A2E%8B%16-Z*%C3l%D1%A2E%8B%16-Z*%83%96%D9%A2E%8B%16-Z*%83%96%D9%A2E%8B%16-Z%B4T%86%D9%A2E%8B%16-Z%B4T%06-%B3E%8B%16-Z%B4%AE%A4%F5%25%C0%00%DE%BF%5C'%0F%DA%B8q%00%00%00%00IEND%AEB%60%82") repeat-y !important;
    border-left: 1px solid #BBBBBB !important;
    border-right: 1px solid #000000 !important;
    border-bottom: 1px dashed #BBBBBB !important;
}

.overflowRulerX &gt; .firebugRulerV {
    left: 0 !important;
}

.overflowRulerY &gt; .firebugRulerH {
    top: 0 !important;
}

/* * * * * * * * * * * * * * * * * * * * * * * * * * * * * * * * * * * * * * * * * * * * * * * * */
.fbProxyElement {
    position: fixed !important;
    pointer-events: auto !important;
}
</style></svg>